<?xml version="1.0" encoding="UTF-8"?>
<svg id="Layer_1" xmlns="http://www.w3.org/2000/svg" version="1.1" viewBox="0 0 400 50">
  <!-- Generator: Adobe Illustrator 29.0.0, SVG Export Plug-In . SVG Version: 2.1.0 Build 186)  -->
  <defs>
    <style>
      .st0 {
        fill: #fff;
      }
    </style>
  </defs>
  <g>
    <path class="st0" d="M219.25,26.81h1.63c.37,0,.75-.09,1.13-.28.38-.18.73-.43,1.03-.73.3-.3.55-.65.73-1.03.18-.38.28-.77.28-1.17v-6c0-.4-.09-.79-.28-1.17-.19-.38-.43-.73-.73-1.03-.31-.3-.65-.55-1.03-.73-.38-.18-.76-.28-1.13-.28h-18.08c0,.1,0,.21,0,.31,0,.03.01.09.03.15.02.11.05.24.06.39.04,1.41.11,2.92.21,4.5h15.25v2.18h-15.08c.35,3.94.98,8.2,2.21,12.43h1.83v-7.54h5.13l11.64,15.49h6.43l-11.24-15.49Z"/>
    <path class="st0" d="M168.07,34.36h2.19c1.22-4.23,1.86-8.49,2.21-12.43h-15.08v-2.18h15.25c.1-1.58.17-3.09.21-4.5,0-.15.03-.29.06-.39.01-.06.03-.12.03-.15,0-.1,0-.21,0-.31h-18.08c-.37,0-.75.09-1.13.28-.38.19-.73.43-1.03.73-.3.31-.55.65-.73,1.03-.18.38-.28.78-.28,1.17v6c0,.4.09.79.28,1.17.19.38.43.73.73,1.03.31.31.65.55,1.03.73.38.19.76.28,1.13.28h1.63l-11.24,15.49h6.43l11.64-15.49h4.77v7.54Z"/>
    <path class="st0" d="M206.36,42.15c-.28-.67-.56-1.34-.81-2.02-3.19-8.74-4.07-17.96-4.49-24.99l-.21-9.69h-18.43l-7.75,6.89v.39c-.42,11.46-1.82,19.91-4.56,27.39-.24.66-.51,1.3-.78,1.94-.3.7-.6,1.43-.86,2.16l-.44,1.23h39.62l-.45-1.24c-.25-.7-.54-1.38-.83-2.08ZM170.68,43.62c.11-.27.23-.55.35-.83.28-.67.57-1.34.82-2.03,2.72-7.45,4.15-15.8,4.61-26.95h7.17v-.91c.03-1.85.07-3.72.13-5.6h15.28l.17,7.92c.42,7.19,1.33,16.58,4.6,25.55.26.71.55,1.41.84,2.1.11.25.21.5.31.76h-34.29Z"/>
    <path class="st0" d="M175.04,39.62c-.09.27-.18.54-.28.81h26.12c-.09-.27-.18-.54-.27-.81h-25.57Z"/>
    <path class="st0" d="M186.53,37.75h-10.91c-.08.27-.16.54-.25.81h11.15v-.81Z"/>
    <path class="st0" d="M199.51,35.88h-23.36c-.07.27-.14.54-.22.81h23.8c-.07-.27-.15-.54-.22-.81Z"/>
    <path class="st0" d="M199.04,34.01h-22.42c-.06.27-.13.54-.2.81h22.82c-.07-.27-.14-.54-.2-.81Z"/>
    <path class="st0" d="M198.62,32.14h-21.58c-.06.27-.12.54-.18.81h21.94c-.06-.27-.12-.54-.18-.81Z"/>
    <path class="st0" d="M188.65,30.27h-11.24c-.05.27-.1.54-.16.81h11.4v-.81Z"/>
    <path class="st0" d="M197.93,28.39h-20.19c-.04.27-.09.54-.13.81h20.46c-.05-.27-.09-.54-.13-.81Z"/>
    <path class="st0" d="M197.64,26.52h-19.62c-.04.27-.07.54-.11.81h19.85c-.04-.27-.08-.54-.12-.81Z"/>
    <path class="st0" d="M185.26,24.65h-6.99c-.03.27-.07.54-.1.81h7.09v-.81Z"/>
    <path class="st0" d="M197.16,22.78h-18.68c-.03.27-.06.54-.09.81h18.86c-.03-.27-.06-.54-.09-.81Z"/>
    <path class="st0" d="M196.97,20.91h-18.31c-.02.27-.05.54-.07.81h18.46c-.03-.27-.05-.54-.08-.81Z"/>
    <path class="st0" d="M196.81,19.04h-18c-.02.27-.04.54-.06.81h18.12c-.02-.27-.04-.54-.07-.81Z"/>
    <path class="st0" d="M196.61,16.22h-17.61c-.02.27-.03.54-.05.81h17.71c-.02-.27-.04-.54-.05-.81Z"/>
    <polygon class="st0" points="196.43 9.94 184.7 9.94 184.7 12.51 196.49 12.51 196.43 9.94"/>
  </g>
  <g>
    <path class="st0" d="M.91,20.84h4.71c.75,0,1.46.13,2.13.4.64.25,1.21.61,1.71,1.09.51.52.87,1.02,1.08,1.49.22.5.33,1.09.33,1.78v.43c0,.52-.08,1-.23,1.44-.15.42-.38.86-.69,1.31-.26.37-.51.63-.75.8-.22.17-.53.33-.93.49l-.71.28.42.65,3.19,4.95h-2.52l-3.44-5.29h-2.24v5.29H.92v-15.11ZM5.93,28.63h0c.41,0,.78-.06,1.09-.19.28-.13.57-.34.86-.64s.52-.63.65-.98c.13-.31.19-.69.19-1.13,0-.4-.06-.77-.19-1.1-.12-.28-.33-.59-.64-.91h0c-.28-.28-.64-.49-1.1-.64-.43-.14-.89-.21-1.38-.21h-2.48v5.79h1.39s.51.01.51.01h1.09Z"/>
    <path class="st0" d="M33.4,20.81v2.01h-6.57v4.57h4.93v2.01h-4.93v4.57h6.57v2.01h-8.6v-15.18h8.6Z"/>
    <path class="st0" d="M51.79,33.83c.3-.12.57-.28.81-.47s.44-.43.58-.72c.15-.28.22-.59.22-.91,0-.27-.05-.53-.17-.76s-.27-.44-.46-.6c-.19-.17-.42-.32-.69-.47-.27-.14-.53-.26-.78-.35-.25-.09-.52-.17-.82-.25-.67-.19-1.26-.42-1.78-.72-.52-.29-.98-.67-1.37-1.15-.27-.32-.48-.69-.62-1.09-.15-.41-.22-.83-.22-1.27,0-.59.11-1.16.33-1.69s.54-1,.94-1.39c.4-.4.87-.72,1.41-.94.53-.23,1.1-.34,1.69-.34.54,0,1.05.09,1.54.28.49.19.93.45,1.32.79.66.57,1.1,1.27,1.34,2.11l-2.02.43c-.11-.31-.29-.6-.55-.86-.46-.45-1-.68-1.62-.68-.31,0-.6.06-.88.18-.28.12-.53.29-.74.5-.21.22-.38.46-.5.74-.12.28-.18.57-.18.88,0,.22.03.43.1.62s.15.36.26.5c.1.14.24.28.4.4.17.13.33.23.48.32.15.08.34.17.55.25s.4.15.56.2.34.11.55.17c.21.07.38.12.49.16.37.13.72.28,1.05.46s.65.39.95.64c.31.25.57.51.79.8.22.29.4.61.53.98.13.37.2.75.2,1.15,0,.6-.13,1.17-.39,1.71s-.6,1.01-1.02,1.39c-.42.38-.92.69-1.48.92-.56.23-1.14.34-1.73.34-.65,0-1.28-.13-1.88-.4-.61-.26-1.14-.64-1.59-1.13-.45-.49-.78-1.04-.97-1.66l2.03-.43c.19.45.51.83.97,1.11s.93.43,1.43.43c.31-.02.62-.09.92-.22Z"/>
    <path class="st0" d="M81.1,20.84v9.29c0,.83-.14,1.6-.43,2.3-.3.7-.74,1.35-1.32,1.93h0c-.62.61-1.26,1.05-1.94,1.32-.7.29-1.46.44-2.29.44s-1.61-.14-2.31-.43c-.72-.3-1.37-.74-1.94-1.33-.59-.58-1.03-1.23-1.32-1.93-.28-.7-.43-1.46-.43-2.3v-9.29h2.04v9.28c0,.53.1,1.03.29,1.5.18.45.47.87.86,1.27.38.39.81.67,1.28.86.46.2.96.29,1.5.29s1.01-.1,1.49-.29c.47-.2.9-.48,1.27-.86.37-.35.67-.77.88-1.27.2-.47.3-.98.3-1.5v-9.28h2.04Z"/>
    <path class="st0" d="M102.75,31.98l7.39-11.31v15.27h-2.02v-8.59l-5.36,8.24-5.37-8.24v8.59h-2.02v-15.27l7.39,11.31Z"/>
    <path class="st0" d="M132.99,20.81v2.01h-6.57v4.57h4.93v2.01h-4.93v4.57h6.57v2.01h-8.6v-15.18h8.6Z"/>
  </g>
  <g>
    <path class="st0" d="M242.52,20.88h4.71c.75,0,1.46.13,2.13.4.64.25,1.21.61,1.71,1.09.51.52.87,1.02,1.08,1.49.22.5.33,1.09.33,1.78v.43c0,.52-.08,1-.23,1.44-.15.42-.38.86-.69,1.31-.26.37-.51.63-.75.8-.22.17-.53.33-.93.49l-.71.28.42.65,3.19,4.95h-2.52l-3.44-5.29h-2.24v5.29h-2.03v-15.11ZM247.54,28.67h0c.41,0,.78-.06,1.09-.19.28-.13.57-.34.86-.64s.52-.63.65-.98c.13-.31.19-.69.19-1.13,0-.4-.06-.77-.19-1.1-.12-.28-.33-.59-.64-.91h0c-.28-.28-.64-.49-1.1-.64-.43-.14-.89-.21-1.38-.21h-2.48v5.79h1.39s.51.01.51.01h1.09Z"/>
    <path class="st0" d="M275.01,20.85v2.01h-6.57v4.57h4.93v2.01h-4.93v4.57h6.57v2.01h-8.6v-15.18h8.6Z"/>
    <path class="st0" d="M301.03,35.99h-2.16l-1.12-2.49h-6.42l-1.12,2.49h-2.16l6.49-15.25,6.49,15.25ZM294.53,31.87h2.48c-.41-.95-.83-1.97-1.24-3.06-.41-1.09-.82-2.11-1.22-3.07-.41.95-.83,1.98-1.25,3.07-.42,1.09-.83,2.11-1.24,3.06h2.46Z"/>
    <path class="st0" d="M320.62,20.8c.52,0,1.04.05,1.55.14.49.1.96.25,1.43.46.48.22.92.46,1.32.72.24.17.47.33.67.5l-1.45,1.45c-.41-.34-.86-.61-1.35-.82-.67-.28-1.39-.42-2.14-.42s-1.48.14-2.15.42c-.67.29-1.27.7-1.81,1.24-.54.54-.95,1.15-1.23,1.82h0c-.27.66-.41,1.38-.41,2.15s.14,1.51.41,2.16c.28.67.7,1.27,1.24,1.81.52.54,1.12.95,1.81,1.23.68.28,1.4.42,2.15.42s1.48-.14,2.16-.42c.51-.21.96-.48,1.35-.81l1.44,1.45c-.2.17-.43.33-.67.5-.43.29-.87.53-1.32.72-.49.21-.97.36-1.43.45-.49.1-1,.15-1.54.15-1.05,0-2.03-.19-2.94-.56-.91-.37-1.73-.93-2.48-1.69-.76-.76-1.33-1.59-1.69-2.49-.37-.88-.56-1.86-.56-2.94s.19-2.05.56-2.94c.36-.89.92-1.72,1.69-2.5.76-.76,1.58-1.33,2.48-1.7.66-.27,1.36-.44,2.11-.52h.81Z"/>
    <path class="st0" d="M345.33,20.88h3.39v2h-4.03v13.11h-2.02v-13.11h-4.03v-2h6.7Z"/>
    <path class="st0" d="M370.25,21.31c.89.37,1.72.94,2.49,1.71.76.76,1.32,1.58,1.7,2.48.38.91.57,1.9.57,2.95s-.19,2.04-.57,2.95c-.37.9-.94,1.73-1.7,2.48-.75.75-1.58,1.31-2.49,1.69-.91.37-1.89.56-2.94.56s-2.04-.19-2.95-.56c-.91-.37-1.73-.93-2.48-1.69-.76-.76-1.33-1.59-1.69-2.49-.37-.88-.56-1.86-.56-2.94s.19-2.05.56-2.94c.36-.89.92-1.72,1.69-2.5.76-.76,1.58-1.33,2.48-1.7.88-.37,1.86-.56,2.95-.56s2.05.19,2.94.56ZM365.15,23.21c-.68.3-1.29.71-1.81,1.24-.56.56-.97,1.16-1.24,1.82-.27.66-.41,1.38-.41,2.15s.14,1.5.41,2.16c.26.66.68,1.26,1.24,1.82.52.54,1.13.95,1.81,1.23.68.28,1.4.42,2.16.42s1.47-.14,2.14-.42c.67-.28,1.28-.69,1.82-1.23.56-.56.97-1.16,1.24-1.82.28-.66.43-1.38.43-2.16s-.14-1.48-.43-2.15c-.28-.65-.69-1.26-1.23-1.82-.54-.54-1.15-.95-1.83-1.24-.67-.28-1.39-.42-2.14-.42s-1.49.14-2.16.42Z"/>
    <path class="st0" d="M388.66,20.88h4.71c.75,0,1.46.13,2.13.4.64.25,1.21.61,1.71,1.09.51.52.87,1.02,1.08,1.49.22.5.33,1.09.33,1.78v.43c0,.52-.08,1-.23,1.44-.15.42-.38.86-.69,1.31-.26.37-.51.63-.75.8-.22.17-.53.33-.93.49l-.71.28.42.65,3.19,4.95h-2.52l-3.44-5.29h-2.24v5.29h-2.03v-15.11ZM393.68,28.67h0c.41,0,.78-.06,1.09-.19.28-.13.57-.34.86-.64s.52-.63.65-.98c.13-.31.19-.69.19-1.13,0-.4-.06-.77-.19-1.1-.12-.28-.33-.59-.64-.91h0c-.28-.28-.64-.49-1.1-.64-.43-.14-.89-.21-1.38-.21h-2.48v5.79h1.39s.51.01.51.01h1.09Z"/>
  </g>
</svg>