<?xml version="1.0" encoding="UTF-8"?>
<svg id="Layer_1" xmlns="http://www.w3.org/2000/svg" version="1.1" viewBox="0 0 400 160">
  <!-- Generator: Adobe Illustrator 29.0.0, SVG Export Plug-In . SVG Version: 2.1.0 Build 186)  -->
  <defs>
    <style>
      .st0 {
        fill: #fff;
      }
    </style>
  </defs>
  <g>
    <path class="st0" d="M2.14,138.53h5.82c.93,0,1.81.16,2.63.49.79.31,1.49.76,2.11,1.34.64.64,1.08,1.26,1.33,1.84.27.61.4,1.34.4,2.19v.53c0,.65-.09,1.24-.29,1.78-.18.52-.47,1.06-.85,1.62-.32.45-.64.78-.93.99-.28.21-.66.41-1.15.6l-.88.35.51.8,3.94,6.11h-3.11l-4.25-6.53h-2.76v6.53h-2.51v-18.65ZM8.34,148.15h.01c.51.01.96-.07,1.34-.24.34-.16.7-.42,1.06-.79s.64-.78.8-1.2c.16-.39.24-.85.24-1.39,0-.49-.08-.95-.24-1.36-.15-.35-.41-.73-.79-1.13h0c-.34-.35-.79-.61-1.35-.79-.53-.18-1.1-.26-1.71-.26h-3.06v7.15h1.72s.63.01.63.01h1.34Z"/>
    <path class="st0" d="M42.24,138.49v2.48h-8.12v5.64h6.08v2.48h-6.08v5.65h8.12v2.48h-10.61v-18.74h10.61Z"/>
    <path class="st0" d="M64.94,154.57c.37-.15.71-.34,1-.58s.54-.53.72-.89c.18-.35.27-.73.27-1.13,0-.33-.06-.65-.21-.94s-.33-.54-.56-.74c-.23-.21-.51-.4-.85-.57-.34-.18-.66-.32-.96-.43-.31-.11-.64-.21-1.01-.31-.83-.23-1.56-.52-2.2-.89-.64-.36-1.21-.83-1.69-1.42-.33-.4-.59-.85-.77-1.35-.18-.5-.27-1.02-.27-1.56,0-.73.14-1.43.41-2.08s.66-1.23,1.16-1.72c.5-.5,1.08-.89,1.73-1.16.66-.28,1.35-.42,2.09-.42.67,0,1.3.11,1.9.34.61.23,1.15.55,1.63.97.81.7,1.36,1.57,1.65,2.6l-2.49.53c-.14-.39-.36-.74-.67-1.06-.57-.56-1.23-.84-2-.84-.38,0-.75.07-1.09.22-.35.15-.65.35-.91.62-.26.27-.47.57-.62.92-.15.34-.22.71-.22,1.09,0,.27.04.53.12.77s.19.45.32.62c.13.18.29.34.5.5.2.16.4.29.59.39.19.1.42.21.68.31s.49.19.69.25.42.13.68.22c.26.08.46.15.6.2.46.16.89.35,1.3.57s.8.48,1.18.79c.38.3.7.64.98.99.27.35.49.76.65,1.21.16.45.24.92.24,1.42,0,.74-.16,1.44-.48,2.11s-.74,1.24-1.26,1.72c-.52.47-1.13.85-1.82,1.13-.69.28-1.4.42-2.13.42-.8,0-1.58-.16-2.32-.49-.75-.33-1.4-.79-1.96-1.39-.56-.6-.96-1.28-1.2-2.05l2.51-.53c.23.56.63,1.02,1.19,1.38s1.15.53,1.77.53c.39-.03.76-.12,1.14-.27Z"/>
    <path class="st0" d="M101.13,138.53v11.46c0,1.03-.18,1.97-.53,2.83-.37.87-.91,1.66-1.63,2.38h0c-.76.76-1.56,1.29-2.4,1.63-.86.36-1.8.54-2.82.54s-1.99-.18-2.85-.53c-.89-.37-1.69-.92-2.4-1.64-.73-.72-1.27-1.51-1.63-2.38-.35-.86-.53-1.81-.53-2.83v-11.46h2.52v11.45c0,.65.12,1.27.36,1.86.23.55.58,1.08,1.07,1.57.47.48.99.83,1.58,1.07.57.24,1.19.36,1.86.36s1.25-.12,1.84-.36c.58-.24,1.11-.6,1.57-1.07.46-.43.82-.96,1.09-1.57.24-.58.37-1.2.37-1.86v-11.45h2.52Z"/>
    <path class="st0" d="M127.85,152.29l9.12-13.96v18.85h-2.5v-10.6l-6.62,10.17-6.62-10.17v10.6h-2.49v-18.85l9.12,13.96Z"/>
    <path class="st0" d="M165.18,138.49v2.48h-8.12v5.64h6.09v2.48h-6.09v5.65h8.12v2.48h-10.61v-18.74h10.61Z"/>
    <path class="st0" d="M204.64,138.53h5.82c.93,0,1.81.16,2.63.49.79.31,1.49.76,2.11,1.34.64.64,1.08,1.26,1.33,1.84.27.61.4,1.34.4,2.19v.53c0,.65-.09,1.24-.29,1.78-.18.52-.47,1.06-.85,1.62-.32.45-.64.78-.93.99-.28.21-.66.41-1.15.6l-.88.35.51.8,3.94,6.11h-3.11l-4.25-6.53h-2.76v6.53h-2.51v-18.65ZM210.83,148.15h.01c.51.01.96-.07,1.34-.24.34-.16.7-.42,1.06-.79s.64-.78.8-1.2c.16-.39.24-.85.24-1.39,0-.49-.08-.95-.24-1.36-.15-.35-.41-.73-.79-1.13h0c-.34-.35-.79-.61-1.35-.79-.53-.18-1.1-.26-1.71-.26h-3.06v7.15h1.72s.63.01.63.01h1.34Z"/>
    <path class="st0" d="M244.74,138.49v2.48h-8.12v5.64h6.08v2.48h-6.08v5.65h8.12v2.48h-10.61v-18.74h10.61Z"/>
    <path class="st0" d="M276.86,157.18h-2.67l-1.38-3.07h-7.93l-1.38,3.07h-2.67l8.02-18.83,8.01,18.83ZM268.84,152.1h3.06c-.51-1.17-1.02-2.43-1.52-3.78-.51-1.35-1.01-2.61-1.51-3.79-.51,1.18-1.02,2.44-1.54,3.79-.51,1.35-1.02,2.6-1.52,3.78h3.04Z"/>
    <path class="st0" d="M301.04,138.43c.65,0,1.28.06,1.91.18.6.13,1.19.31,1.77.56.59.27,1.14.56,1.63.89.3.21.58.41.83.61l-1.79,1.8c-.51-.42-1.06-.76-1.67-1.02-.83-.34-1.71-.51-2.65-.51s-1.82.17-2.66.51c-.83.36-1.57.87-2.23,1.53-.67.67-1.18,1.42-1.52,2.24h-.01c-.33.82-.5,1.71-.5,2.66s.17,1.86.5,2.67c.35.83.86,1.57,1.53,2.23.64.67,1.39,1.17,2.23,1.52.84.34,1.72.51,2.66.51s1.83-.17,2.67-.51c.63-.26,1.18-.59,1.67-1l1.78,1.79c-.25.21-.53.41-.83.62-.53.36-1.07.66-1.63.89-.6.26-1.19.44-1.77.55-.6.13-1.24.19-1.91.19-1.3,0-2.51-.23-3.63-.69-1.12-.46-2.14-1.15-3.06-2.08-.94-.94-1.64-1.96-2.08-3.07-.46-1.09-.69-2.3-.69-3.62s.23-2.53.69-3.62c.44-1.1,1.14-2.12,2.08-3.09.94-.94,1.96-1.64,3.06-2.1.81-.33,1.68-.55,2.61-.64h1Z"/>
    <path class="st0" d="M331.55,138.53h4.19v2.47h-4.98v16.18h-2.49v-16.18h-4.98v-2.47h8.27Z"/>
    <path class="st0" d="M362.31,139.07c1.1.46,2.12,1.16,3.07,2.11.94.94,1.63,1.96,2.09,3.06.47,1.13.7,2.34.7,3.64s-.23,2.52-.7,3.64c-.46,1.11-1.16,2.13-2.09,3.06-.92.92-1.94,1.61-3.07,2.08-1.13.46-2.34.69-3.62.69s-2.52-.23-3.64-.69c-1.12-.46-2.14-1.15-3.06-2.08-.94-.94-1.64-1.96-2.08-3.07-.46-1.09-.69-2.3-.69-3.62s.23-2.53.69-3.62c.44-1.1,1.14-2.12,2.08-3.09.94-.94,1.96-1.64,3.06-2.1,1.09-.46,2.3-.69,3.64-.69s2.53.23,3.62.69ZM356.01,141.41c-.84.37-1.59.88-2.23,1.53-.69.69-1.19,1.43-1.53,2.24-.33.82-.5,1.71-.5,2.66s.17,1.86.5,2.66c.32.81.84,1.56,1.53,2.24.65.67,1.39,1.17,2.23,1.52.84.34,1.73.51,2.67.51s1.82-.17,2.65-.51c.83-.34,1.58-.85,2.24-1.52.69-.69,1.2-1.43,1.53-2.24.35-.81.53-1.7.53-2.66s-.18-1.83-.53-2.66c-.34-.8-.85-1.55-1.52-2.24-.67-.66-1.42-1.17-2.26-1.53-.83-.34-1.71-.51-2.65-.51s-1.84.17-2.67.51Z"/>
    <path class="st0" d="M385.03,138.53h5.82c.93,0,1.81.16,2.63.49.79.31,1.49.76,2.11,1.34.64.64,1.08,1.26,1.33,1.84.27.61.4,1.34.4,2.19v.53c0,.65-.09,1.24-.29,1.78-.18.52-.47,1.06-.85,1.62-.32.45-.64.78-.93.99-.28.21-.66.41-1.15.6l-.88.35.51.8,3.94,6.11h-3.11l-4.25-6.53h-2.76v6.53h-2.51v-18.65ZM391.23,148.15h.01c.51.01.96-.07,1.34-.24.34-.16.7-.42,1.06-.79s.64-.78.8-1.2c.16-.39.24-.85.24-1.39,0-.49-.08-.95-.24-1.36-.15-.35-.41-.73-.79-1.13h0c-.34-.35-.79-.61-1.35-.79-.53-.18-1.1-.26-1.71-.26h-3.06v7.15h1.72s.63.01.63.01h1.34Z"/>
  </g>
  <g>
    <path class="st0" d="M289.65,64.85h4.67c1.06,0,2.15-.27,3.25-.8,1.1-.53,2.09-1.23,2.97-2.11.87-.87,1.57-1.86,2.11-2.96.53-1.1.8-2.22.8-3.36v-17.22c0-1.14-.27-2.26-.8-3.37-.53-1.1-1.24-2.09-2.11-2.96-.88-.87-1.87-1.57-2.97-2.11-1.1-.53-2.18-.8-3.25-.8h-51.92c0,.3,0,.6,0,.89,0,.09.04.27.08.44.07.31.15.69.17,1.13.12,4.05.3,8.39.6,12.93h43.77v6.27h-43.29c.99,11.3,2.82,23.55,6.33,35.68h5.26v-21.66h14.72l33.41,44.47h18.47l-32.27-44.47Z"/>
    <path class="st0" d="M142.71,86.51h6.28c3.51-12.13,5.34-24.38,6.33-35.68h-43.29v-6.27h43.77c.29-4.53.48-8.88.6-12.93.01-.44.1-.83.17-1.13.04-.17.08-.35.08-.44,0-.29,0-.59,0-.89h-51.92c-1.06,0-2.15.27-3.25.8-1.1.53-2.09,1.24-2.97,2.11-.87.88-1.57,1.86-2.11,2.96-.53,1.1-.8,2.23-.8,3.37v17.22c0,1.14.27,2.26.8,3.36.53,1.1,1.24,2.09,2.11,2.96.88.88,1.87,1.58,2.97,2.11,1.1.53,2.18.8,3.25.8h4.67l-32.27,44.47h18.47l33.41-44.47h13.69v21.66Z"/>
    <path class="st0" d="M252.64,108.88c-.8-1.92-1.62-3.85-2.33-5.8-9.15-25.08-11.69-51.57-12.88-71.74l-.61-27.82h-52.92l-22.24,19.77-.04,1.13c-1.16,32.91-5.19,57.16-13.05,78.65-.69,1.88-1.47,3.73-2.25,5.58-.85,2.01-1.73,4.09-2.48,6.2l-1.27,3.54h113.74l-1.3-3.56c-.73-2-1.56-3.98-2.39-5.96ZM150.22,113.1c.32-.78.65-1.57,1-2.38.81-1.93,1.62-3.86,2.34-5.82,7.82-21.39,11.93-45.37,13.24-77.38h20.6l.02-2.63c.05-5.31.17-10.68.34-16.06h43.88l.5,22.73c1.21,20.63,3.8,47.61,13.19,73.34.74,2.03,1.58,4.04,2.42,6.03.3.72.61,1.45.9,2.17h-98.44Z"/>
    <path class="st0" d="M162.74,101.63c-.26.78-.52,1.55-.79,2.32h74.98c-.26-.77-.53-1.55-.78-2.32h-73.41Z"/>
    <path class="st0" d="M195.72,96.26h-31.31c-.23.78-.47,1.55-.71,2.32h32.01v-2.32Z"/>
    <path class="st0" d="M232.98,90.88h-67.06c-.21.78-.41,1.56-.62,2.32h68.32c-.21-.77-.44-1.55-.64-2.32Z"/>
    <path class="st0" d="M231.64,85.51h-64.37c-.18.78-.37,1.55-.57,2.32h65.51c-.19-.77-.39-1.55-.57-2.32Z"/>
    <path class="st0" d="M230.44,80.14h-61.96c-.16.78-.34,1.55-.51,2.32h62.98c-.17-.78-.34-1.55-.51-2.32Z"/>
    <path class="st0" d="M201.82,74.76h-32.28c-.14.78-.3,1.55-.45,2.32h32.73v-2.32Z"/>
    <path class="st0" d="M228.44,69.39h-57.97c-.13.78-.25,1.56-.39,2.32h58.74c-.14-.78-.26-1.55-.39-2.32Z"/>
    <path class="st0" d="M227.61,64.02h-56.32c-.11.77-.21,1.56-.33,2.32h56.99c-.12-.78-.23-1.55-.34-2.32Z"/>
    <path class="st0" d="M192.06,58.64h-20.07c-.1.78-.19,1.56-.29,2.32h20.36v-2.32Z"/>
    <path class="st0" d="M226.24,53.27h-53.63c-.08.78-.16,1.56-.25,2.32h54.15c-.09-.78-.18-1.56-.27-2.32Z"/>
    <path class="st0" d="M225.7,47.9h-52.57c-.07.78-.14,1.56-.21,2.32h53.01c-.08-.78-.16-1.56-.23-2.32Z"/>
    <path class="st0" d="M225.24,42.52h-51.67c-.06.78-.12,1.56-.18,2.32h52.03c-.07-.78-.13-1.55-.19-2.32Z"/>
    <path class="st0" d="M224.66,34.43h-50.56c-.04.78-.09,1.55-.14,2.32h50.85c-.05-.78-.1-1.56-.15-2.32Z"/>
    <polygon class="st0" points="224.16 16.42 190.45 16.42 190.45 23.79 224.32 23.79 224.16 16.42"/>
  </g>
</svg>